<svg width="182" height="56" viewBox="0 0 182 56" fill="none" xmlns="http://www.w3.org/2000/svg">
<g id="Group 29">
<rect id="Rectangle" width="182" height="56" rx="4" fill="#E5ECF4"/>
<g id="Group 27" clip-path="url(#clip0)">
<path id="GooglePlay" d="M57.2 35.92H63.2V43H60.8V41.44H60.44C60.28 41.96 59.9733 42.4 59.52 42.76C59.0667 43.1067 58.3867 43.28 57.48 43.28C56.84 43.28 56.24 43.16 55.68 42.92C55.12 42.68 54.6333 42.3267 54.22 41.86C53.8067 41.38 53.48 40.7933 53.24 40.1C53 39.3933 52.88 38.5733 52.88 37.64V34.36C52.88 33.4533 53.0067 32.6533 53.26 31.96C53.5267 31.2533 53.8867 30.66 54.34 30.18C54.8067 29.7 55.36 29.34 56 29.1C56.64 28.8467 57.3467 28.72 58.12 28.72C58.92 28.72 59.6333 28.8533 60.26 29.12C60.8867 29.3733 61.42 29.7333 61.86 30.2C62.3 30.6533 62.6333 31.1933 62.86 31.82C63.0867 32.4333 63.2 33.0933 63.2 33.8V34.04H60.56V33.8C60.56 32.96 60.34 32.3267 59.9 31.9C59.4733 31.46 58.8667 31.24 58.08 31.24C57.3333 31.24 56.72 31.4933 56.24 32C55.76 32.4933 55.52 33.3467 55.52 34.56V37.52C55.52 39.68 56.4 40.76 58.16 40.76C58.9467 40.76 59.54 40.5533 59.94 40.14C60.3533 39.7133 60.56 39.1467 60.56 38.44H57.2V35.92ZM74.6332 38.16C74.6332 38.9867 74.4932 39.72 74.2132 40.36C73.9332 40.9867 73.5532 41.52 73.0732 41.96C72.5932 42.3867 72.0399 42.7133 71.4132 42.94C70.7999 43.1667 70.1532 43.28 69.4732 43.28C68.7932 43.28 68.1399 43.1667 67.5132 42.94C66.8999 42.7133 66.3532 42.3867 65.8732 41.96C65.3932 41.52 65.0132 40.9867 64.7332 40.36C64.4532 39.72 64.3132 38.9867 64.3132 38.16V37.92C64.3132 37.1067 64.4532 36.3867 64.7332 35.76C65.0132 35.12 65.3932 34.58 65.8732 34.14C66.3532 33.7 66.8999 33.3667 67.5132 33.14C68.1399 32.9133 68.7932 32.8 69.4732 32.8C70.1532 32.8 70.7999 32.9133 71.4132 33.14C72.0399 33.3667 72.5932 33.7 73.0732 34.14C73.5532 34.58 73.9332 35.12 74.2132 35.76C74.4932 36.3867 74.6332 37.1067 74.6332 37.92V38.16ZM69.4732 40.88C69.8332 40.88 70.1732 40.82 70.4932 40.7C70.8132 40.58 71.0932 40.4067 71.3332 40.18C71.5732 39.9533 71.7599 39.68 71.8932 39.36C72.0399 39.0267 72.1132 38.6533 72.1132 38.24V37.84C72.1132 37.4267 72.0399 37.06 71.8932 36.74C71.7599 36.4067 71.5732 36.1267 71.3332 35.9C71.0932 35.6733 70.8132 35.5 70.4932 35.38C70.1732 35.26 69.8332 35.2 69.4732 35.2C69.1132 35.2 68.7732 35.26 68.4532 35.38C68.1332 35.5 67.8532 35.6733 67.6132 35.9C67.3732 36.1267 67.1799 36.4067 67.0332 36.74C66.8999 37.06 66.8332 37.4267 66.8332 37.84V38.24C66.8332 38.6533 66.8999 39.0267 67.0332 39.36C67.1799 39.68 67.3732 39.9533 67.6132 40.18C67.8532 40.4067 68.1332 40.58 68.4532 40.7C68.7732 40.82 69.1132 40.88 69.4732 40.88ZM85.9865 38.16C85.9865 38.9867 85.8465 39.72 85.5665 40.36C85.2865 40.9867 84.9065 41.52 84.4265 41.96C83.9465 42.3867 83.3931 42.7133 82.7665 42.94C82.1531 43.1667 81.5065 43.28 80.8265 43.28C80.1465 43.28 79.4931 43.1667 78.8665 42.94C78.2531 42.7133 77.7065 42.3867 77.2265 41.96C76.7465 41.52 76.3665 40.9867 76.0865 40.36C75.8065 39.72 75.6665 38.9867 75.6665 38.16V37.92C75.6665 37.1067 75.8065 36.3867 76.0865 35.76C76.3665 35.12 76.7465 34.58 77.2265 34.14C77.7065 33.7 78.2531 33.3667 78.8665 33.14C79.4931 32.9133 80.1465 32.8 80.8265 32.8C81.5065 32.8 82.1531 32.9133 82.7665 33.14C83.3931 33.3667 83.9465 33.7 84.4265 34.14C84.9065 34.58 85.2865 35.12 85.5665 35.76C85.8465 36.3867 85.9865 37.1067 85.9865 37.92V38.16ZM80.8265 40.88C81.1865 40.88 81.5265 40.82 81.8465 40.7C82.1665 40.58 82.4465 40.4067 82.6865 40.18C82.9265 39.9533 83.1131 39.68 83.2465 39.36C83.3931 39.0267 83.4665 38.6533 83.4665 38.24V37.84C83.4665 37.4267 83.3931 37.06 83.2465 36.74C83.1131 36.4067 82.9265 36.1267 82.6865 35.9C82.4465 35.6733 82.1665 35.5 81.8465 35.38C81.5265 35.26 81.1865 35.2 80.8265 35.2C80.4665 35.2 80.1265 35.26 79.8065 35.38C79.4865 35.5 79.2065 35.6733 78.9665 35.9C78.7265 36.1267 78.5331 36.4067 78.3865 36.74C78.2531 37.06 78.1865 37.4267 78.1865 37.84V38.24C78.1865 38.6533 78.2531 39.0267 78.3865 39.36C78.5331 39.68 78.7265 39.9533 78.9665 40.18C79.2065 40.4067 79.4865 40.58 79.8065 40.7C80.1265 40.82 80.4665 40.88 80.8265 40.88ZM94.6997 41.56H94.3397C94.233 41.7867 94.0997 42.0067 93.9397 42.22C93.793 42.42 93.593 42.6 93.3397 42.76C93.0997 42.92 92.8064 43.0467 92.4597 43.14C92.1264 43.2333 91.7197 43.28 91.2397 43.28C90.6264 43.28 90.053 43.1733 89.5197 42.96C88.9997 42.7333 88.5397 42.4067 88.1397 41.98C87.753 41.54 87.4464 41.0067 87.2197 40.38C87.0064 39.7533 86.8997 39.0333 86.8997 38.22V37.86C86.8997 37.06 87.013 36.3467 87.2397 35.72C87.4797 35.0933 87.7997 34.5667 88.1997 34.14C88.613 33.7 89.0864 33.3667 89.6197 33.14C90.1664 32.9133 90.7397 32.8 91.3397 32.8C92.1397 32.8 92.773 32.9533 93.2397 33.26C93.7064 33.5533 94.073 33.9733 94.3397 34.52H94.6997V33.08H97.2197V45.44C97.2197 45.8933 97.073 46.2667 96.7797 46.56C96.4997 46.8533 96.133 47 95.6797 47H88.9997V44.6H94.1597C94.5197 44.6 94.6997 44.4 94.6997 44V41.56ZM92.0597 40.88C92.8464 40.88 93.4797 40.6333 93.9597 40.14C94.453 39.6333 94.6997 38.9733 94.6997 38.16V37.92C94.6997 37.1067 94.453 36.4533 93.9597 35.96C93.4797 35.4533 92.8464 35.2 92.0597 35.2C91.273 35.2 90.633 35.4467 90.1397 35.94C89.6597 36.42 89.4197 37.08 89.4197 37.92V38.16C89.4197 39 89.6597 39.6667 90.1397 40.16C90.633 40.64 91.273 40.88 92.0597 40.88ZM98.9129 40.6H102.393V31.4H99.0329V29H104.913V40.6H108.153V43H98.9129V40.6ZM112.546 38.86C112.56 39.1533 112.626 39.4267 112.746 39.68C112.88 39.92 113.053 40.1333 113.266 40.32C113.493 40.4933 113.746 40.6333 114.026 40.74C114.32 40.8333 114.626 40.88 114.946 40.88C115.573 40.88 116.053 40.7733 116.386 40.56C116.72 40.3333 116.96 40.0667 117.106 39.76L119.266 40.96C119.146 41.2133 118.98 41.48 118.766 41.76C118.553 42.0267 118.273 42.2733 117.926 42.5C117.593 42.7267 117.18 42.9133 116.686 43.06C116.206 43.2067 115.64 43.28 114.986 43.28C114.24 43.28 113.56 43.16 112.946 42.92C112.333 42.68 111.8 42.3333 111.346 41.88C110.906 41.4267 110.56 40.8733 110.306 40.22C110.066 39.5667 109.946 38.8267 109.946 38V37.88C109.946 37.12 110.073 36.4267 110.326 35.8C110.593 35.1733 110.953 34.64 111.406 34.2C111.86 33.76 112.386 33.42 112.986 33.18C113.6 32.9267 114.253 32.8 114.946 32.8C115.8 32.8 116.533 32.9533 117.146 33.26C117.76 33.5533 118.266 33.9333 118.666 34.4C119.066 34.8533 119.36 35.36 119.546 35.92C119.733 36.4667 119.826 37 119.826 37.52V38.86H112.546ZM114.926 35.08C114.286 35.08 113.766 35.2467 113.366 35.58C112.966 35.9 112.706 36.2733 112.586 36.7H117.266C117.186 36.2333 116.933 35.8467 116.506 35.54C116.093 35.2333 115.566 35.08 114.926 35.08ZM124.199 37.72V43H121.559V29H127.039C127.759 29 128.386 29.12 128.919 29.36C129.453 29.5867 129.893 29.8933 130.239 30.28C130.599 30.6533 130.866 31.0867 131.039 31.58C131.226 32.06 131.319 32.5533 131.319 33.06V33.54C131.319 34.06 131.226 34.5733 131.039 35.08C130.866 35.5733 130.599 36.02 130.239 36.42C129.893 36.8067 129.453 37.12 128.919 37.36C128.386 37.6 127.759 37.72 127.039 37.72H124.199ZM124.199 35.2H126.779C127.366 35.2 127.826 35.04 128.159 34.72C128.506 34.4 128.679 33.9867 128.679 33.48V33.24C128.679 32.7333 128.506 32.32 128.159 32C127.826 31.68 127.366 31.52 126.779 31.52H124.199V35.2ZM132.973 40.6H136.453V31.4H133.093V29H138.973V40.6H142.213V43H132.973V40.6ZM150.806 41.56C150.539 42.1867 150.166 42.6333 149.686 42.9C149.206 43.1533 148.646 43.28 148.006 43.28C147.406 43.28 146.839 43.1667 146.306 42.94C145.786 42.7133 145.326 42.38 144.926 41.94C144.526 41.5 144.206 40.9667 143.966 40.34C143.739 39.7133 143.626 39 143.626 38.2V37.88C143.626 37.0933 143.739 36.3867 143.966 35.76C144.193 35.1333 144.499 34.6 144.886 34.16C145.273 33.72 145.719 33.3867 146.226 33.16C146.746 32.92 147.299 32.8 147.886 32.8C148.593 32.8 149.159 32.92 149.586 33.16C150.026 33.4 150.373 33.7733 150.626 34.28H150.986V33.08H153.506V40C153.506 40.4 153.686 40.6 154.046 40.6H154.426V43H152.706C152.253 43 151.879 42.8667 151.586 42.6C151.306 42.3333 151.166 41.9867 151.166 41.56H150.806ZM148.566 40.88C149.299 40.88 149.886 40.64 150.326 40.16C150.766 39.6667 150.986 39 150.986 38.16V37.92C150.986 37.08 150.766 36.42 150.326 35.94C149.886 35.4467 149.299 35.2 148.566 35.2C147.833 35.2 147.246 35.4467 146.806 35.94C146.366 36.42 146.146 37.08 146.146 37.92V38.16C146.146 39 146.366 39.6667 146.806 40.16C147.246 40.64 147.833 40.88 148.566 40.88ZM162.459 33.08H164.979V45.44C164.979 45.8933 164.832 46.2667 164.539 46.56C164.259 46.8533 163.892 47 163.439 47H157.539V44.6H161.919C162.279 44.6 162.459 44.4 162.459 44V41.56H162.099C161.659 42.7067 160.712 43.28 159.259 43.28C158.766 43.28 158.306 43.2 157.879 43.04C157.452 42.88 157.079 42.6333 156.759 42.3C156.439 41.9667 156.186 41.5533 155.999 41.06C155.826 40.5533 155.739 39.96 155.739 39.28V33.08H158.259V38.76C158.259 39.4667 158.426 40.02 158.759 40.42C159.092 40.8067 159.592 41 160.259 41C161.019 41 161.572 40.76 161.919 40.28C162.279 39.7867 162.459 39.12 162.459 38.28V33.08Z" fill="#495567"/>
<path id="Get it on" d="M54.6 15.46H57.6V19H56.4V18.22H56.22C56.14 18.48 55.9867 18.7 55.76 18.88C55.5333 19.0533 55.1933 19.14 54.74 19.14C54.42 19.14 54.12 19.08 53.84 18.96C53.56 18.84 53.3167 18.6633 53.11 18.43C52.9033 18.19 52.74 17.8967 52.62 17.55C52.5 17.1967 52.44 16.7867 52.44 16.32V14.68C52.44 14.2267 52.5033 13.8267 52.63 13.48C52.7633 13.1267 52.9433 12.83 53.17 12.59C53.4033 12.35 53.68 12.17 54 12.05C54.32 11.9233 54.6733 11.86 55.06 11.86C55.46 11.86 55.8167 11.9267 56.13 12.06C56.4433 12.1867 56.71 12.3667 56.93 12.6C57.15 12.8267 57.3167 13.0967 57.43 13.41C57.5433 13.7167 57.6 14.0467 57.6 14.4V14.52H56.28V14.4C56.28 13.98 56.17 13.6633 55.95 13.45C55.7367 13.23 55.4333 13.12 55.04 13.12C54.6667 13.12 54.36 13.2467 54.12 13.5C53.88 13.7467 53.76 14.1733 53.76 14.78V16.26C53.76 17.34 54.2 17.88 55.08 17.88C55.4733 17.88 55.77 17.7767 55.97 17.57C56.1767 17.3567 56.28 17.0733 56.28 16.72H54.6V15.46ZM59.5666 16.93C59.5733 17.0767 59.6066 17.2133 59.6666 17.34C59.7333 17.46 59.82 17.5667 59.9266 17.66C60.04 17.7467 60.1666 17.8167 60.3066 17.87C60.4533 17.9167 60.6066 17.94 60.7666 17.94C61.08 17.94 61.32 17.8867 61.4866 17.78C61.6533 17.6667 61.7733 17.5333 61.8466 17.38L62.9266 17.98C62.8666 18.1067 62.7833 18.24 62.6766 18.38C62.57 18.5133 62.43 18.6367 62.2566 18.75C62.09 18.8633 61.8833 18.9567 61.6366 19.03C61.3966 19.1033 61.1133 19.14 60.7866 19.14C60.4133 19.14 60.0733 19.08 59.7666 18.96C59.46 18.84 59.1933 18.6667 58.9666 18.44C58.7466 18.2133 58.5733 17.9367 58.4466 17.61C58.3266 17.2833 58.2666 16.9133 58.2666 16.5V16.44C58.2666 16.06 58.33 15.7133 58.4566 15.4C58.59 15.0867 58.77 14.82 58.9966 14.6C59.2233 14.38 59.4866 14.21 59.7866 14.09C60.0933 13.9633 60.42 13.9 60.7666 13.9C61.1933 13.9 61.56 13.9767 61.8666 14.13C62.1733 14.2767 62.4266 14.4667 62.6266 14.7C62.8266 14.9267 62.9733 15.18 63.0666 15.46C63.16 15.7333 63.2066 16 63.2066 16.26V16.93H59.5666ZM60.7566 15.04C60.4366 15.04 60.1766 15.1233 59.9766 15.29C59.7766 15.45 59.6466 15.6367 59.5866 15.85H61.9266C61.8866 15.6167 61.76 15.4233 61.5466 15.27C61.34 15.1167 61.0766 15.04 60.7566 15.04ZM63.9932 14.04H65.4632V12H66.7232V14.04H68.5132V15.24H66.7232V17.5C66.7232 17.7 66.8132 17.8 66.9932 17.8H68.3332V19H66.2332C66.0066 19 65.8199 18.9267 65.6732 18.78C65.5332 18.6333 65.4632 18.4467 65.4632 18.22V15.24H63.9932V14.04ZM75.5765 17.8H77.2565V15.24H75.6965V14.04H78.5165V17.8H79.9565V19H75.5765V17.8ZM78.8265 12.57C78.8265 12.7033 78.7998 12.83 78.7465 12.95C78.6998 13.0633 78.6331 13.1633 78.5465 13.25C78.4598 13.33 78.3565 13.3967 78.2365 13.45C78.1231 13.4967 78.0031 13.52 77.8765 13.52C77.7431 13.52 77.6198 13.4967 77.5065 13.45C77.3931 13.3967 77.2931 13.33 77.2065 13.25C77.1198 13.1633 77.0498 13.0633 76.9965 12.95C76.9498 12.83 76.9265 12.7033 76.9265 12.57C76.9265 12.4367 76.9498 12.3133 76.9965 12.2C77.0498 12.08 77.1198 11.98 77.2065 11.9C77.2931 11.8133 77.3931 11.7467 77.5065 11.7C77.6198 11.6467 77.7431 11.62 77.8765 11.62C78.0031 11.62 78.1231 11.6467 78.2365 11.7C78.3565 11.7467 78.4598 11.8133 78.5465 11.9C78.6331 11.98 78.6998 12.08 78.7465 12.2C78.7998 12.3133 78.8265 12.4367 78.8265 12.57ZM81.0231 14.04H82.4931V12H83.7531V14.04H85.5431V15.24H83.7531V17.5C83.7531 17.7 83.8431 17.8 84.0231 17.8H85.3631V19H83.2631C83.0364 19 82.8498 18.9267 82.7031 18.78C82.5631 18.6333 82.4931 18.4467 82.4931 18.22V15.24H81.0231V14.04ZM97.3763 16.58C97.3763 16.9933 97.3063 17.36 97.1663 17.68C97.0263 17.9933 96.8363 18.26 96.5963 18.48C96.3563 18.6933 96.0797 18.8567 95.7663 18.97C95.4597 19.0833 95.1363 19.14 94.7963 19.14C94.4563 19.14 94.1297 19.0833 93.8163 18.97C93.5097 18.8567 93.2363 18.6933 92.9963 18.48C92.7563 18.26 92.5663 17.9933 92.4263 17.68C92.2863 17.36 92.2163 16.9933 92.2163 16.58V16.46C92.2163 16.0533 92.2863 15.6933 92.4263 15.38C92.5663 15.06 92.7563 14.79 92.9963 14.57C93.2363 14.35 93.5097 14.1833 93.8163 14.07C94.1297 13.9567 94.4563 13.9 94.7963 13.9C95.1363 13.9 95.4597 13.9567 95.7663 14.07C96.0797 14.1833 96.3563 14.35 96.5963 14.57C96.8363 14.79 97.0263 15.06 97.1663 15.38C97.3063 15.6933 97.3763 16.0533 97.3763 16.46V16.58ZM94.7963 17.94C94.9763 17.94 95.1463 17.91 95.3063 17.85C95.4663 17.79 95.6063 17.7033 95.7263 17.59C95.8463 17.4767 95.9397 17.34 96.0063 17.18C96.0797 17.0133 96.1163 16.8267 96.1163 16.62V16.42C96.1163 16.2133 96.0797 16.03 96.0063 15.87C95.9397 15.7033 95.8463 15.5633 95.7263 15.45C95.6063 15.3367 95.4663 15.25 95.3063 15.19C95.1463 15.13 94.9763 15.1 94.7963 15.1C94.6163 15.1 94.4463 15.13 94.2863 15.19C94.1263 15.25 93.9863 15.3367 93.8663 15.45C93.7463 15.5633 93.6497 15.7033 93.5763 15.87C93.5097 16.03 93.4763 16.2133 93.4763 16.42V16.62C93.4763 16.8267 93.5097 17.0133 93.5763 17.18C93.6497 17.34 93.7463 17.4767 93.8663 17.59C93.9863 17.7033 94.1263 17.79 94.2863 17.85C94.4463 17.91 94.6163 17.94 94.7963 17.94ZM99.4529 19H98.1929V14.04H99.4529V14.78H99.6329C99.7463 14.5 99.9296 14.2833 100.183 14.13C100.436 13.9767 100.733 13.9 101.073 13.9C101.313 13.9 101.536 13.94 101.743 14.02C101.956 14.0933 102.143 14.21 102.303 14.37C102.463 14.53 102.586 14.7333 102.673 14.98C102.766 15.2267 102.813 15.52 102.813 15.86V19H101.553V16.18C101.553 15.8267 101.466 15.55 101.293 15.35C101.126 15.1433 100.883 15.04 100.563 15.04C100.19 15.04 99.9096 15.1667 99.7229 15.42C99.5429 15.6667 99.4529 16 99.4529 16.42V19Z" fill="#495567"/>
</g>
<path id="Shape" fill-rule="evenodd" clip-rule="evenodd" d="M17.3522 14.2371C18.077 13.8877 18.908 13.9252 19.6053 14.3449L33.4772 22.423L29.504 26.4147L17.3522 14.2371ZM16 16.4214C16 16.0498 16.0825 15.6887 16.2358 15.3641L28.3848 27.5391L16.2379 39.7437C16.083 39.426 16 39.0702 16 38.697V16.4214ZM29.5056 28.6619L17.3734 40.8517C17.6954 41.0008 18.0379 41.0658 18.38 41.0658C18.8023 41.0658 19.2237 40.9648 19.6053 40.7354L33.4799 32.6452L29.5056 28.6619ZM38.7456 25.4907C38.7504 25.4933 38.7556 25.4965 38.7604 25.4996C39.4767 25.9342 39.9044 26.6944 39.9044 27.5328C39.9044 28.3712 39.4767 29.1314 38.7604 29.5664C38.7556 29.5691 34.8966 31.8189 34.8966 31.8189L30.6242 27.5375L34.894 23.2477L38.7456 25.4907Z" fill="#495567"/>
</g>
<defs>
<clipPath id="clip0">
<rect width="114" height="39" fill="white" transform="translate(52 8)"/>
</clipPath>
</defs>
</svg>
