<svg width="189" height="88" viewBox="0 0 189 88" fill="none" xmlns="http://www.w3.org/2000/svg">
<path fill-rule="evenodd" clip-rule="evenodd" d="M189 0H0V72H78L94 88L110 72H189V0Z" fill="#FCB72B"/>
<path d="M37.0528 38.664V45H33.8848V28.2H40.4608C41.3248 28.2 42.0768 28.344 42.7168 28.632C43.3568 28.904 43.8848 29.272 44.3008 29.736C44.7328 30.184 45.0528 30.704 45.2608 31.296C45.4848 31.872 45.5968 32.464 45.5968 33.072V33.648C45.5968 34.272 45.4848 34.888 45.2608 35.496C45.0528 36.088 44.7328 36.624 44.3008 37.104C43.8848 37.568 43.3568 37.944 42.7168 38.232C42.0768 38.52 41.3248 38.664 40.4608 38.664H37.0528ZM37.0528 35.64H40.1488C40.8528 35.64 41.4048 35.448 41.8048 35.064C42.2208 34.68 42.4288 34.184 42.4288 33.576V33.288C42.4288 32.68 42.2208 32.184 41.8048 31.8C41.4048 31.416 40.8528 31.224 40.1488 31.224H37.0528V35.64ZM55.3567 43.272C55.0367 44.024 54.5887 44.56 54.0127 44.88C53.4367 45.184 52.7647 45.336 51.9967 45.336C51.2767 45.336 50.5967 45.2 49.9567 44.928C49.3327 44.656 48.7807 44.256 48.3007 43.728C47.8207 43.2 47.4367 42.56 47.1487 41.808C46.8767 41.056 46.7407 40.2 46.7407 39.24V38.856C46.7407 37.912 46.8767 37.064 47.1487 36.312C47.4207 35.56 47.7887 34.92 48.2527 34.392C48.7167 33.864 49.2527 33.464 49.8607 33.192C50.4847 32.904 51.1487 32.76 51.8527 32.76C52.7007 32.76 53.3807 32.904 53.8927 33.192C54.4207 33.48 54.8367 33.928 55.1407 34.536H55.5727V33.096H58.5967V41.4C58.5967 41.88 58.8127 42.12 59.2447 42.12H59.7007V45H57.6367C57.0927 45 56.6447 44.84 56.2927 44.52C55.9567 44.2 55.7887 43.784 55.7887 43.272H55.3567ZM52.6687 42.456C53.5487 42.456 54.2527 42.168 54.7807 41.592C55.3087 41 55.5727 40.2 55.5727 39.192V38.904C55.5727 37.896 55.3087 37.104 54.7807 36.528C54.2527 35.936 53.5487 35.64 52.6687 35.64C51.7887 35.64 51.0847 35.936 50.5567 36.528C50.0287 37.104 49.7647 37.896 49.7647 38.904V39.192C49.7647 40.2 50.0287 41 50.5567 41.592C51.0847 42.168 51.7887 42.456 52.6687 42.456ZM61.2046 42.12H65.3806V31.08H61.3486V28.2H68.4046V42.12H72.2926V45H61.2046V42.12ZM77.5645 40.032C77.5805 40.384 77.6605 40.712 77.8045 41.016C77.9645 41.304 78.1725 41.56 78.4285 41.784C78.7005 41.992 79.0045 42.16 79.3405 42.288C79.6925 42.4 80.0605 42.456 80.4445 42.456C81.1965 42.456 81.7725 42.328 82.1725 42.072C82.5725 41.8 82.8605 41.48 83.0365 41.112L85.6285 42.552C85.4845 42.856 85.2845 43.176 85.0285 43.512C84.7725 43.832 84.4365 44.128 84.0205 44.4C83.6205 44.672 83.1245 44.896 82.5325 45.072C81.9565 45.248 81.2765 45.336 80.4925 45.336C79.5965 45.336 78.7805 45.192 78.0445 44.904C77.3085 44.616 76.6685 44.2 76.1245 43.656C75.5965 43.112 75.1805 42.448 74.8765 41.664C74.5885 40.88 74.4445 39.992 74.4445 39V38.856C74.4445 37.944 74.5965 37.112 74.9005 36.36C75.2205 35.608 75.6525 34.968 76.1965 34.44C76.7405 33.912 77.3725 33.504 78.0925 33.216C78.8285 32.912 79.6125 32.76 80.4445 32.76C81.4685 32.76 82.3485 32.944 83.0845 33.312C83.8205 33.664 84.4285 34.12 84.9085 34.68C85.3885 35.224 85.7405 35.832 85.9645 36.504C86.1885 37.16 86.3005 37.8 86.3005 38.424V40.032H77.5645ZM80.4205 35.496C79.6525 35.496 79.0285 35.696 78.5485 36.096C78.0685 36.48 77.7565 36.928 77.6125 37.44H83.2285C83.1325 36.88 82.8285 36.416 82.3165 36.048C81.8205 35.68 81.1885 35.496 80.4205 35.496ZM92.3163 36.456C92.3163 36.84 92.5163 37.12 92.9163 37.296C93.3163 37.456 94.0443 37.592 95.1003 37.704C96.3163 37.832 97.3083 38.2 98.0763 38.808C98.8443 39.4 99.2283 40.232 99.2283 41.304V41.448C99.2283 42.632 98.7963 43.576 97.9323 44.28C97.0683 44.984 95.8523 45.336 94.2843 45.336C93.3563 45.336 92.5643 45.216 91.9083 44.976C91.2523 44.736 90.7083 44.44 90.2763 44.088C89.8443 43.72 89.5083 43.32 89.2683 42.888C89.0443 42.44 88.8923 42.008 88.8123 41.592L91.5963 40.68C91.7243 41.192 91.9883 41.64 92.3883 42.024C92.8043 42.408 93.4363 42.6 94.2843 42.6C95.0363 42.6 95.5483 42.488 95.8203 42.264C96.1083 42.024 96.2523 41.768 96.2523 41.496C96.2523 41.336 96.2123 41.192 96.1323 41.064C96.0683 40.92 95.9403 40.792 95.7483 40.68C95.5563 40.552 95.2923 40.448 94.9563 40.368C94.6363 40.288 94.2283 40.224 93.7323 40.176C92.3883 40.064 91.3163 39.72 90.5163 39.144C89.7323 38.552 89.3403 37.688 89.3403 36.552V36.408C89.3403 35.816 89.4683 35.296 89.7243 34.848C89.9803 34.4 90.3163 34.024 90.7323 33.72C91.1483 33.4 91.6283 33.16 92.1723 33C92.7163 32.84 93.2763 32.76 93.8523 32.76C94.6043 32.76 95.2523 32.856 95.7963 33.048C96.3563 33.224 96.8283 33.464 97.2123 33.768C97.5963 34.056 97.9083 34.384 98.1483 34.752C98.3883 35.104 98.5723 35.448 98.7003 35.784L95.9643 36.888C95.8203 36.456 95.5723 36.12 95.2203 35.88C94.8683 35.624 94.4123 35.496 93.8523 35.496C93.3403 35.496 92.9563 35.592 92.7003 35.784C92.4443 35.96 92.3163 36.184 92.3163 36.456ZM101.812 33.096H105.34V28.2H108.364V33.096H112.66V35.976H108.364V41.4C108.364 41.88 108.58 42.12 109.012 42.12H112.228V45H107.188C106.644 45 106.196 44.824 105.844 44.472C105.508 44.12 105.34 43.672 105.34 43.128V35.976H101.812V33.096ZM115.988 42.12H120.02V35.976H116.276V33.096H123.044V42.12H126.5V45H115.988V42.12ZM123.788 29.568C123.788 29.888 123.724 30.192 123.596 30.48C123.484 30.752 123.324 30.992 123.116 31.2C122.908 31.392 122.66 31.552 122.372 31.68C122.1 31.792 121.812 31.848 121.508 31.848C121.188 31.848 120.892 31.792 120.62 31.68C120.348 31.552 120.108 31.392 119.9 31.2C119.692 30.992 119.524 30.752 119.396 30.48C119.284 30.192 119.228 29.888 119.228 29.568C119.228 29.248 119.284 28.952 119.396 28.68C119.524 28.392 119.692 28.152 119.9 27.96C120.108 27.752 120.348 27.592 120.62 27.48C120.892 27.352 121.188 27.288 121.508 27.288C121.812 27.288 122.1 27.352 122.372 27.48C122.66 27.592 122.908 27.752 123.116 27.96C123.324 28.152 123.484 28.392 123.596 28.68C123.724 28.952 123.788 29.248 123.788 29.568ZM132.42 45H129.396V33.096H132.42V34.872H132.852C133.124 34.2 133.564 33.68 134.172 33.312C134.78 32.944 135.492 32.76 136.308 32.76C136.884 32.76 137.42 32.856 137.916 33.048C138.428 33.224 138.876 33.504 139.26 33.888C139.644 34.272 139.94 34.76 140.148 35.352C140.372 35.944 140.484 36.648 140.484 37.464V45H137.46V38.232C137.46 37.384 137.252 36.72 136.836 36.24C136.436 35.744 135.852 35.496 135.084 35.496C134.188 35.496 133.516 35.8 133.068 36.408C132.636 37 132.42 37.8 132.42 38.808V45ZM145.684 40.032C145.7 40.384 145.78 40.712 145.924 41.016C146.084 41.304 146.292 41.56 146.548 41.784C146.82 41.992 147.124 42.16 147.46 42.288C147.812 42.4 148.18 42.456 148.564 42.456C149.316 42.456 149.892 42.328 150.292 42.072C150.692 41.8 150.98 41.48 151.156 41.112L153.748 42.552C153.604 42.856 153.404 43.176 153.148 43.512C152.892 43.832 152.556 44.128 152.14 44.4C151.74 44.672 151.244 44.896 150.652 45.072C150.076 45.248 149.396 45.336 148.612 45.336C147.716 45.336 146.9 45.192 146.164 44.904C145.428 44.616 144.788 44.2 144.244 43.656C143.716 43.112 143.3 42.448 142.996 41.664C142.708 40.88 142.564 39.992 142.564 39V38.856C142.564 37.944 142.716 37.112 143.02 36.36C143.34 35.608 143.772 34.968 144.316 34.44C144.86 33.912 145.492 33.504 146.212 33.216C146.948 32.912 147.732 32.76 148.564 32.76C149.588 32.76 150.468 32.944 151.204 33.312C151.94 33.664 152.548 34.12 153.028 34.68C153.508 35.224 153.86 35.832 154.084 36.504C154.308 37.16 154.42 37.8 154.42 38.424V40.032H145.684ZM148.54 35.496C147.772 35.496 147.148 35.696 146.668 36.096C146.188 36.48 145.876 36.928 145.732 37.44H151.348C151.252 36.88 150.948 36.416 150.436 36.048C149.94 35.68 149.308 35.496 148.54 35.496Z" fill="#495567"/>
</svg>
