<svg width="189" height="88" viewBox="0 0 189 88" fill="none" xmlns="http://www.w3.org/2000/svg">
<path fill-rule="evenodd" clip-rule="evenodd" d="M189 0H0V72H78L94 88L110 72H189V0Z" fill="#FCB72B"/>
<path d="M58.6887 39.96C58.6887 41.704 58.2167 43.04 57.2727 43.968C56.3287 44.88 55.0327 45.336 53.3847 45.336C52.5367 45.336 51.7687 45.224 51.0807 45C50.3927 44.76 49.8007 44.416 49.3047 43.968C48.8087 43.504 48.4247 42.944 48.1527 42.288C47.8807 41.616 47.7447 40.84 47.7447 39.96V38.376H50.9127V39.96C50.9127 40.712 51.1207 41.304 51.5367 41.736C51.9527 42.152 52.5367 42.36 53.2887 42.36C53.9927 42.36 54.5367 42.152 54.9207 41.736C55.3207 41.32 55.5207 40.728 55.5207 39.96V31.176H53.7927V28.2H60.1287V31.176H58.6887V39.96ZM69.4806 43.272C69.1606 44.024 68.7126 44.56 68.1366 44.88C67.5606 45.184 66.8886 45.336 66.1206 45.336C65.4006 45.336 64.7206 45.2 64.0806 44.928C63.4566 44.656 62.9046 44.256 62.4246 43.728C61.9446 43.2 61.5606 42.56 61.2726 41.808C61.0006 41.056 60.8646 40.2 60.8646 39.24V38.856C60.8646 37.912 61.0006 37.064 61.2726 36.312C61.5446 35.56 61.9126 34.92 62.3766 34.392C62.8406 33.864 63.3766 33.464 63.9846 33.192C64.6086 32.904 65.2726 32.76 65.9766 32.76C66.8246 32.76 67.5046 32.904 68.0166 33.192C68.5446 33.48 68.9606 33.928 69.2646 34.536H69.6966V33.096H72.7206V41.4C72.7206 41.88 72.9366 42.12 73.3686 42.12H73.8246V45H71.7606C71.2166 45 70.7686 44.84 70.4166 44.52C70.0806 44.2 69.9126 43.784 69.9126 43.272H69.4806ZM66.7926 42.456C67.6726 42.456 68.3766 42.168 68.9046 41.592C69.4326 41 69.6966 40.2 69.6966 39.192V38.904C69.6966 37.896 69.4326 37.104 68.9046 36.528C68.3766 35.936 67.6726 35.64 66.7926 35.64C65.9126 35.64 65.2086 35.936 64.6806 36.528C64.1526 37.104 63.8886 37.896 63.8886 38.904V39.192C63.8886 40.2 64.1526 41 64.6806 41.592C65.2086 42.168 65.9126 42.456 66.7926 42.456ZM79.3845 37.464H79.9605L83.1285 33.096H86.4405V33.24L82.6005 38.688V39.12L86.8245 44.856V45H83.3685L79.9605 40.344H79.3845V45H76.3605V28.2H79.3845V37.464ZM96.7283 43.272C96.4083 44.024 95.9603 44.56 95.3843 44.88C94.8083 45.184 94.1363 45.336 93.3683 45.336C92.6483 45.336 91.9683 45.2 91.3283 44.928C90.7043 44.656 90.1523 44.256 89.6723 43.728C89.1923 43.2 88.8083 42.56 88.5203 41.808C88.2483 41.056 88.1123 40.2 88.1123 39.24V38.856C88.1123 37.912 88.2483 37.064 88.5203 36.312C88.7923 35.56 89.1603 34.92 89.6243 34.392C90.0883 33.864 90.6243 33.464 91.2323 33.192C91.8563 32.904 92.5203 32.76 93.2243 32.76C94.0723 32.76 94.7523 32.904 95.2643 33.192C95.7923 33.48 96.2083 33.928 96.5123 34.536H96.9443V33.096H99.9683V41.4C99.9683 41.88 100.184 42.12 100.616 42.12H101.072V45H99.0083C98.4643 45 98.0163 44.84 97.6643 44.52C97.3283 44.2 97.1603 43.784 97.1603 43.272H96.7283ZM94.0403 42.456C94.9203 42.456 95.6243 42.168 96.1523 41.592C96.6803 41 96.9443 40.2 96.9443 39.192V38.904C96.9443 37.896 96.6803 37.104 96.1523 36.528C95.6243 35.936 94.9203 35.64 94.0403 35.64C93.1603 35.64 92.4563 35.936 91.9283 36.528C91.4003 37.104 91.1363 37.896 91.1363 38.904V39.192C91.1363 40.2 91.4003 41 91.9283 41.592C92.4563 42.168 93.1603 42.456 94.0403 42.456ZM102.072 33.096H107.112V34.824H107.544C107.768 34.168 108.144 33.664 108.672 33.312C109.216 32.944 109.864 32.76 110.616 32.76C111.8 32.76 112.752 33.136 113.472 33.888C114.192 34.624 114.552 35.752 114.552 37.272V37.8L111.432 38.088V37.752C111.432 37.096 111.264 36.576 110.928 36.192C110.592 35.792 110.088 35.592 109.416 35.592C108.744 35.592 108.216 35.824 107.832 36.288C107.448 36.752 107.256 37.416 107.256 38.28V42.12H109.992V45H101.784V42.12H104.232V35.976H102.072V33.096ZM115.936 33.096H119.464V28.2H122.488V33.096H126.784V35.976H122.488V41.4C122.488 41.88 122.704 42.12 123.136 42.12H126.352V45H121.312C120.768 45 120.32 44.824 119.968 44.472C119.632 44.12 119.464 43.672 119.464 43.128V35.976H115.936V33.096ZM137.6 43.272C137.28 44.024 136.832 44.56 136.256 44.88C135.68 45.184 135.008 45.336 134.24 45.336C133.52 45.336 132.84 45.2 132.2 44.928C131.576 44.656 131.024 44.256 130.544 43.728C130.064 43.2 129.68 42.56 129.392 41.808C129.12 41.056 128.984 40.2 128.984 39.24V38.856C128.984 37.912 129.12 37.064 129.392 36.312C129.664 35.56 130.032 34.92 130.496 34.392C130.96 33.864 131.496 33.464 132.104 33.192C132.728 32.904 133.392 32.76 134.096 32.76C134.944 32.76 135.624 32.904 136.136 33.192C136.664 33.48 137.08 33.928 137.384 34.536H137.816V33.096H140.84V41.4C140.84 41.88 141.056 42.12 141.488 42.12H141.944V45H139.88C139.336 45 138.888 44.84 138.536 44.52C138.2 44.2 138.032 43.784 138.032 43.272H137.6ZM134.912 42.456C135.792 42.456 136.496 42.168 137.024 41.592C137.552 41 137.816 40.2 137.816 39.192V38.904C137.816 37.896 137.552 37.104 137.024 36.528C136.496 35.936 135.792 35.64 134.912 35.64C134.032 35.64 133.328 35.936 132.8 36.528C132.272 37.104 132.008 37.896 132.008 38.904V39.192C132.008 40.2 132.272 41 132.8 41.592C133.328 42.168 134.032 42.456 134.912 42.456Z" fill="#495567"/>
</svg>
