<svg width="189" height="88" viewBox="0 0 189 88" fill="none" xmlns="http://www.w3.org/2000/svg">
<path fill-rule="evenodd" clip-rule="evenodd" d="M189 0H0V72H78L94 88L110 72H189V0Z" fill="#FCB72B"/>
<path d="M55.0606 28.2H58.2286V41.976H65.8606V45H55.0606V28.2ZM80.2525 39.192C80.2525 40.184 80.0845 41.064 79.7485 41.832C79.4125 42.584 78.9565 43.224 78.3805 43.752C77.8045 44.264 77.1405 44.656 76.3885 44.928C75.6525 45.2 74.8765 45.336 74.0605 45.336C73.2445 45.336 72.4605 45.2 71.7085 44.928C70.9725 44.656 70.3165 44.264 69.7405 43.752C69.1645 43.224 68.7085 42.584 68.3725 41.832C68.0365 41.064 67.8685 40.184 67.8685 39.192V38.904C67.8685 37.928 68.0365 37.064 68.3725 36.312C68.7085 35.544 69.1645 34.896 69.7405 34.368C70.3165 33.84 70.9725 33.44 71.7085 33.168C72.4605 32.896 73.2445 32.76 74.0605 32.76C74.8765 32.76 75.6525 32.896 76.3885 33.168C77.1405 33.44 77.8045 33.84 78.3805 34.368C78.9565 34.896 79.4125 35.544 79.7485 36.312C80.0845 37.064 80.2525 37.928 80.2525 38.904V39.192ZM74.0605 42.456C74.4925 42.456 74.9005 42.384 75.2845 42.24C75.6685 42.096 76.0045 41.888 76.2925 41.616C76.5805 41.344 76.8045 41.016 76.9645 40.632C77.1405 40.232 77.2285 39.784 77.2285 39.288V38.808C77.2285 38.312 77.1405 37.872 76.9645 37.488C76.8045 37.088 76.5805 36.752 76.2925 36.48C76.0045 36.208 75.6685 36 75.2845 35.856C74.9005 35.712 74.4925 35.64 74.0605 35.64C73.6285 35.64 73.2205 35.712 72.8365 35.856C72.4525 36 72.1165 36.208 71.8285 36.48C71.5405 36.752 71.3085 37.088 71.1325 37.488C70.9725 37.872 70.8925 38.312 70.8925 38.808V39.288C70.8925 39.784 70.9725 40.232 71.1325 40.632C71.3085 41.016 71.5405 41.344 71.8285 41.616C72.1165 41.888 72.4525 42.096 72.8365 42.24C73.2205 42.384 73.6285 42.456 74.0605 42.456ZM85.2364 45H82.2124V33.096H85.2364V34.872H85.6684C85.9404 34.2 86.3804 33.68 86.9884 33.312C87.5964 32.944 88.3084 32.76 89.1244 32.76C89.7004 32.76 90.2364 32.856 90.7324 33.048C91.2444 33.224 91.6924 33.504 92.0764 33.888C92.4604 34.272 92.7564 34.76 92.9644 35.352C93.1884 35.944 93.3004 36.648 93.3004 37.464V45H90.2764V38.232C90.2764 37.384 90.0684 36.72 89.6524 36.24C89.2524 35.744 88.6684 35.496 87.9004 35.496C87.0044 35.496 86.3324 35.8 85.8844 36.408C85.4524 37 85.2364 37.8 85.2364 38.808V45ZM104.38 43.272H103.948C103.82 43.544 103.66 43.808 103.468 44.064C103.292 44.304 103.052 44.52 102.748 44.712C102.46 44.904 102.108 45.056 101.692 45.168C101.292 45.28 100.804 45.336 100.228 45.336C99.4923 45.336 98.8043 45.208 98.1643 44.952C97.5403 44.68 96.9883 44.288 96.5083 43.776C96.0443 43.248 95.6763 42.608 95.4043 41.856C95.1483 41.104 95.0203 40.24 95.0203 39.264V38.832C95.0203 37.872 95.1563 37.016 95.4283 36.264C95.7163 35.512 96.1003 34.88 96.5803 34.368C97.0763 33.84 97.6443 33.44 98.2843 33.168C98.9403 32.896 99.6283 32.76 100.348 32.76C101.308 32.76 102.068 32.944 102.628 33.312C103.188 33.664 103.628 34.168 103.948 34.824H104.38V28.2H107.404V45H104.38V43.272ZM101.212 42.456C102.156 42.456 102.916 42.16 103.492 41.568C104.084 40.96 104.38 40.168 104.38 39.192V38.904C104.38 37.928 104.084 37.144 103.492 36.552C102.916 35.944 102.156 35.64 101.212 35.64C100.268 35.64 99.5003 35.936 98.9083 36.528C98.3323 37.104 98.0443 37.896 98.0443 38.904V39.192C98.0443 40.2 98.3323 41 98.9083 41.592C99.5003 42.168 100.268 42.456 101.212 42.456ZM121.124 39.192C121.124 40.184 120.956 41.064 120.62 41.832C120.284 42.584 119.828 43.224 119.252 43.752C118.676 44.264 118.012 44.656 117.26 44.928C116.524 45.2 115.748 45.336 114.932 45.336C114.116 45.336 113.332 45.2 112.58 44.928C111.844 44.656 111.188 44.264 110.612 43.752C110.036 43.224 109.58 42.584 109.244 41.832C108.908 41.064 108.74 40.184 108.74 39.192V38.904C108.74 37.928 108.908 37.064 109.244 36.312C109.58 35.544 110.036 34.896 110.612 34.368C111.188 33.84 111.844 33.44 112.58 33.168C113.332 32.896 114.116 32.76 114.932 32.76C115.748 32.76 116.524 32.896 117.26 33.168C118.012 33.44 118.676 33.84 119.252 34.368C119.828 34.896 120.284 35.544 120.62 36.312C120.956 37.064 121.124 37.928 121.124 38.904V39.192ZM114.932 42.456C115.364 42.456 115.772 42.384 116.156 42.24C116.54 42.096 116.876 41.888 117.164 41.616C117.452 41.344 117.676 41.016 117.836 40.632C118.012 40.232 118.1 39.784 118.1 39.288V38.808C118.1 38.312 118.012 37.872 117.836 37.488C117.676 37.088 117.452 36.752 117.164 36.48C116.876 36.208 116.54 36 116.156 35.856C115.772 35.712 115.364 35.64 114.932 35.64C114.5 35.64 114.092 35.712 113.708 35.856C113.324 36 112.988 36.208 112.7 36.48C112.412 36.752 112.18 37.088 112.004 37.488C111.844 37.872 111.764 38.312 111.764 38.808V39.288C111.764 39.784 111.844 40.232 112.004 40.632C112.18 41.016 112.412 41.344 112.7 41.616C112.988 41.888 113.324 42.096 113.708 42.24C114.092 42.384 114.5 42.456 114.932 42.456ZM126.108 45H123.084V33.096H126.108V34.872H126.54C126.812 34.2 127.252 33.68 127.86 33.312C128.468 32.944 129.18 32.76 129.996 32.76C130.572 32.76 131.108 32.856 131.604 33.048C132.116 33.224 132.564 33.504 132.948 33.888C133.332 34.272 133.628 34.76 133.836 35.352C134.06 35.944 134.172 36.648 134.172 37.464V45H131.148V38.232C131.148 37.384 130.94 36.72 130.524 36.24C130.124 35.744 129.54 35.496 128.772 35.496C127.876 35.496 127.204 35.8 126.756 36.408C126.324 37 126.108 37.8 126.108 38.808V45Z" fill="#495567"/>
</svg>
