<svg width="189" height="89" viewBox="0 0 189 89" fill="none" xmlns="http://www.w3.org/2000/svg">
<g clip-path="url(#clip0)">
<path fill-rule="evenodd" clip-rule="evenodd" d="M189 0.444336H0V72.4443H78L94 88.4443L110 72.4443H189V0.444336Z" fill="#FCB72B"/>
<path d="M48.5928 43.8603H49.0248V28.6443H52.1927V45.4443H46.0008L44.0328 30.2283H43.6008V45.4443H40.4328V28.6443H46.6248L48.5928 43.8603ZM57.1286 40.4763C57.1446 40.8283 57.2246 41.1563 57.3686 41.4603C57.5286 41.7483 57.7366 42.0043 57.9926 42.2283C58.2646 42.4363 58.5686 42.6043 58.9046 42.7323C59.2566 42.8443 59.6246 42.9003 60.0086 42.9003C60.7606 42.9003 61.3366 42.7723 61.7366 42.5163C62.1366 42.2443 62.4246 41.9243 62.6006 41.5563L65.1926 42.9963C65.0486 43.3003 64.8486 43.6203 64.5926 43.9563C64.3366 44.2763 64.0006 44.5723 63.5846 44.8443C63.1846 45.1163 62.6886 45.3403 62.0966 45.5163C61.5206 45.6923 60.8406 45.7803 60.0566 45.7803C59.1606 45.7803 58.3446 45.6363 57.6086 45.3483C56.8726 45.0603 56.2326 44.6443 55.6886 44.1003C55.1606 43.5563 54.7446 42.8923 54.4406 42.1083C54.1526 41.3243 54.0086 40.4363 54.0086 39.4443V39.3003C54.0086 38.3883 54.1606 37.5563 54.4646 36.8043C54.7846 36.0523 55.2166 35.4123 55.7606 34.8843C56.3046 34.3563 56.9366 33.9483 57.6566 33.6603C58.3926 33.3563 59.1766 33.2043 60.0086 33.2043C61.0326 33.2043 61.9126 33.3883 62.6486 33.7563C63.3846 34.1083 63.9926 34.5643 64.4726 35.1243C64.9526 35.6683 65.3046 36.2763 65.5286 36.9483C65.7526 37.6043 65.8646 38.2443 65.8646 38.8683V40.4763H57.1286ZM59.9846 35.9403C59.2166 35.9403 58.5926 36.1403 58.1126 36.5403C57.6326 36.9243 57.3206 37.3723 57.1766 37.8843H62.7926C62.6966 37.3243 62.3926 36.8603 61.8806 36.4923C61.3846 36.1243 60.7526 35.9403 59.9846 35.9403ZM79.7525 45.4443H74.5205L73.8485 36.4203V34.9803H73.2725V36.4203L72.6005 45.4443H67.3685L66.5765 33.5403H69.3605L69.8885 42.5643V44.0043H70.4645V42.5643L71.0645 33.5403H76.0565L76.6565 42.5643V44.0043H77.2325V42.5643L77.7605 33.5403H80.5445L79.7525 45.4443ZM99.2243 39.5403H98.5043L93.6803 28.6443H97.1363L100.592 36.6603H101.024L104.48 28.6443H107.936L103.112 39.5403H102.392V45.4443H99.2243V39.5403ZM120.624 39.6363C120.624 40.6283 120.456 41.5083 120.12 42.2763C119.784 43.0283 119.328 43.6683 118.752 44.1963C118.176 44.7083 117.512 45.1003 116.76 45.3723C116.024 45.6443 115.248 45.7803 114.432 45.7803C113.616 45.7803 112.832 45.6443 112.08 45.3723C111.344 45.1003 110.688 44.7083 110.112 44.1963C109.536 43.6683 109.08 43.0283 108.744 42.2763C108.408 41.5083 108.24 40.6283 108.24 39.6363V39.3483C108.24 38.3723 108.408 37.5083 108.744 36.7563C109.08 35.9883 109.536 35.3403 110.112 34.8123C110.688 34.2843 111.344 33.8843 112.08 33.6123C112.832 33.3403 113.616 33.2043 114.432 33.2043C115.248 33.2043 116.024 33.3403 116.76 33.6123C117.512 33.8843 118.176 34.2843 118.752 34.8123C119.328 35.3403 119.784 35.9883 120.12 36.7563C120.456 37.5083 120.624 38.3723 120.624 39.3483V39.6363ZM114.432 42.9003C114.864 42.9003 115.272 42.8283 115.656 42.6843C116.04 42.5403 116.376 42.3323 116.664 42.0603C116.952 41.7883 117.176 41.4603 117.336 41.0763C117.512 40.6763 117.6 40.2283 117.6 39.7323V39.2523C117.6 38.7563 117.512 38.3163 117.336 37.9323C117.176 37.5323 116.952 37.1963 116.664 36.9243C116.376 36.6523 116.04 36.4443 115.656 36.3003C115.272 36.1563 114.864 36.0843 114.432 36.0843C114 36.0843 113.592 36.1563 113.208 36.3003C112.824 36.4443 112.488 36.6523 112.2 36.9243C111.912 37.1963 111.68 37.5323 111.504 37.9323C111.344 38.3163 111.264 38.7563 111.264 39.2523V39.7323C111.264 40.2283 111.344 40.6763 111.504 41.0763C111.68 41.4603 111.912 41.7883 112.2 42.0603C112.488 42.3323 112.824 42.5403 113.208 42.6843C113.592 42.8283 114 42.9003 114.432 42.9003ZM122.008 33.5403H127.048V35.2683H127.48C127.704 34.6123 128.08 34.1083 128.608 33.7563C129.152 33.3883 129.8 33.2043 130.552 33.2043C131.736 33.2043 132.688 33.5803 133.408 34.3323C134.128 35.0683 134.488 36.1963 134.488 37.7163V38.2443L131.368 38.5323V38.1963C131.368 37.5403 131.2 37.0203 130.864 36.6363C130.528 36.2363 130.024 36.0363 129.352 36.0363C128.68 36.0363 128.152 36.2683 127.768 36.7323C127.384 37.1963 127.192 37.8603 127.192 38.7243V42.5643H129.928V45.4443H121.72V42.5643H124.168V36.4203H122.008V33.5403ZM140.192 37.9083H140.768L143.936 33.5403H147.248V33.6843L143.408 39.1323V39.5643L147.632 45.3003V45.4443H144.176L140.768 40.7883H140.192V45.4443H137.168V28.6443H140.192V37.9083Z" fill="#495567"/>
</g>
<defs>
<clipPath id="clip0">
<rect width="189" height="88" fill="white" transform="translate(0 0.444336)"/>
</clipPath>
</defs>
</svg>
