<svg width="189" height="88" viewBox="0 0 189 88" fill="none" xmlns="http://www.w3.org/2000/svg">
<path fill-rule="evenodd" clip-rule="evenodd" d="M189 0H0V72H78L94 88L110 72H189V0Z" fill="#FCB72B"/>
<path d="M64.3006 38.664V45H61.1326V28.2H67.7086C68.5726 28.2 69.3246 28.344 69.9646 28.632C70.6046 28.904 71.1326 29.272 71.5486 29.736C71.9806 30.184 72.3006 30.704 72.5086 31.296C72.7326 31.872 72.8446 32.464 72.8446 33.072V33.648C72.8446 34.272 72.7326 34.888 72.5086 35.496C72.3006 36.088 71.9806 36.624 71.5486 37.104C71.1326 37.568 70.6046 37.944 69.9646 38.232C69.3246 38.52 68.5726 38.664 67.7086 38.664H64.3006ZM64.3006 35.64H67.3966C68.1006 35.64 68.6526 35.448 69.0526 35.064C69.4686 34.68 69.6766 34.184 69.6766 33.576V33.288C69.6766 32.68 69.4686 32.184 69.0526 31.8C68.6526 31.416 68.1006 31.224 67.3966 31.224H64.3006V35.64ZM82.6045 43.272C82.2845 44.024 81.8365 44.56 81.2605 44.88C80.6845 45.184 80.0125 45.336 79.2445 45.336C78.5245 45.336 77.8445 45.2 77.2045 44.928C76.5805 44.656 76.0285 44.256 75.5485 43.728C75.0685 43.2 74.6845 42.56 74.3965 41.808C74.1245 41.056 73.9885 40.2 73.9885 39.24V38.856C73.9885 37.912 74.1245 37.064 74.3965 36.312C74.6685 35.56 75.0365 34.92 75.5005 34.392C75.9645 33.864 76.5005 33.464 77.1085 33.192C77.7325 32.904 78.3965 32.76 79.1005 32.76C79.9485 32.76 80.6285 32.904 81.1405 33.192C81.6685 33.48 82.0845 33.928 82.3885 34.536H82.8205V33.096H85.8445V41.4C85.8445 41.88 86.0605 42.12 86.4925 42.12H86.9485V45H84.8845C84.3405 45 83.8925 44.84 83.5405 44.52C83.2045 44.2 83.0365 43.784 83.0365 43.272H82.6045ZM79.9165 42.456C80.7965 42.456 81.5005 42.168 82.0285 41.592C82.5565 41 82.8205 40.2 82.8205 39.192V38.904C82.8205 37.896 82.5565 37.104 82.0285 36.528C81.5005 35.936 80.7965 35.64 79.9165 35.64C79.0365 35.64 78.3325 35.936 77.8045 36.528C77.2765 37.104 77.0125 37.896 77.0125 38.904V39.192C77.0125 40.2 77.2765 41 77.8045 41.592C78.3325 42.168 79.0365 42.456 79.9165 42.456ZM87.9483 33.096H92.9883V34.824H93.4203C93.6443 34.168 94.0203 33.664 94.5483 33.312C95.0923 32.944 95.7403 32.76 96.4923 32.76C97.6763 32.76 98.6283 33.136 99.3483 33.888C100.068 34.624 100.428 35.752 100.428 37.272V37.8L97.3083 38.088V37.752C97.3083 37.096 97.1403 36.576 96.8043 36.192C96.4683 35.792 95.9643 35.592 95.2923 35.592C94.6203 35.592 94.0923 35.824 93.7083 36.288C93.3243 36.752 93.1323 37.416 93.1323 38.28V42.12H95.8683V45H87.6603V42.12H90.1083V35.976H87.9483V33.096ZM102.364 42.12H106.396V35.976H102.652V33.096H109.42V42.12H112.876V45H102.364V42.12ZM110.164 29.568C110.164 29.888 110.1 30.192 109.972 30.48C109.86 30.752 109.7 30.992 109.492 31.2C109.284 31.392 109.036 31.552 108.748 31.68C108.476 31.792 108.188 31.848 107.884 31.848C107.564 31.848 107.268 31.792 106.996 31.68C106.724 31.552 106.484 31.392 106.276 31.2C106.068 30.992 105.9 30.752 105.772 30.48C105.66 30.192 105.604 29.888 105.604 29.568C105.604 29.248 105.66 28.952 105.772 28.68C105.9 28.392 106.068 28.152 106.276 27.96C106.484 27.752 106.724 27.592 106.996 27.48C107.268 27.352 107.564 27.288 107.884 27.288C108.188 27.288 108.476 27.352 108.748 27.48C109.036 27.592 109.284 27.752 109.492 27.96C109.7 28.152 109.86 28.392 109.972 28.68C110.1 28.952 110.164 29.248 110.164 29.568ZM119.564 36.456C119.564 36.84 119.764 37.12 120.164 37.296C120.564 37.456 121.292 37.592 122.348 37.704C123.564 37.832 124.556 38.2 125.324 38.808C126.092 39.4 126.476 40.232 126.476 41.304V41.448C126.476 42.632 126.044 43.576 125.18 44.28C124.316 44.984 123.1 45.336 121.532 45.336C120.604 45.336 119.812 45.216 119.156 44.976C118.5 44.736 117.956 44.44 117.524 44.088C117.092 43.72 116.756 43.32 116.516 42.888C116.292 42.44 116.14 42.008 116.06 41.592L118.844 40.68C118.972 41.192 119.236 41.64 119.636 42.024C120.052 42.408 120.684 42.6 121.532 42.6C122.284 42.6 122.796 42.488 123.068 42.264C123.356 42.024 123.5 41.768 123.5 41.496C123.5 41.336 123.46 41.192 123.38 41.064C123.316 40.92 123.188 40.792 122.996 40.68C122.804 40.552 122.54 40.448 122.204 40.368C121.884 40.288 121.476 40.224 120.98 40.176C119.636 40.064 118.564 39.72 117.764 39.144C116.98 38.552 116.588 37.688 116.588 36.552V36.408C116.588 35.816 116.716 35.296 116.972 34.848C117.228 34.4 117.564 34.024 117.98 33.72C118.396 33.4 118.876 33.16 119.42 33C119.964 32.84 120.524 32.76 121.1 32.76C121.852 32.76 122.5 32.856 123.044 33.048C123.604 33.224 124.076 33.464 124.46 33.768C124.844 34.056 125.156 34.384 125.396 34.752C125.636 35.104 125.82 35.448 125.948 35.784L123.212 36.888C123.068 36.456 122.82 36.12 122.468 35.88C122.116 35.624 121.66 35.496 121.1 35.496C120.588 35.496 120.204 35.592 119.948 35.784C119.692 35.96 119.564 36.184 119.564 36.456Z" fill="#495567"/>
</svg>
