<svg width="189" height="88" viewBox="0 0 189 88" fill="none" xmlns="http://www.w3.org/2000/svg">
<path fill-rule="evenodd" clip-rule="evenodd" d="M189 0H0V72H78L94 88L110 72H189V0Z" fill="#FCB72B"/>
<path d="M38.2369 28.2V39.192C38.2369 41.112 37.7249 42.616 36.7009 43.704C35.6929 44.792 34.1889 45.336 32.1889 45.336C30.1889 45.336 28.6769 44.792 27.6529 43.704C26.6449 42.616 26.1409 41.112 26.1409 39.192V28.2H29.3089V39.192C29.3089 40.184 29.5409 40.96 30.0049 41.52C30.4689 42.08 31.1969 42.36 32.1889 42.36C33.1809 42.36 33.9089 42.08 34.3729 41.52C34.8369 40.96 35.0689 40.184 35.0689 39.192V28.2H38.2369ZM51.0207 42.12V45H40.6527V39.96L48.1407 36.312V35.88H40.7967V33.096H50.7327V37.992L43.2447 41.688V42.12H51.0207ZM56.4846 45H53.4606V28.2H56.4846V34.824H56.9166C57.2366 34.168 57.7006 33.664 58.3086 33.312C58.9166 32.944 59.6926 32.76 60.6366 32.76C61.3406 32.76 62.0046 32.896 62.6286 33.168C63.2686 33.44 63.8206 33.84 64.2846 34.368C64.7646 34.88 65.1406 35.512 65.4126 36.264C65.7006 37.016 65.8446 37.872 65.8446 38.832V39.264C65.8446 40.24 65.7086 41.104 65.4366 41.856C65.1646 42.608 64.7966 43.248 64.3326 43.776C63.8686 44.288 63.3166 44.68 62.6766 44.952C62.0526 45.208 61.3726 45.336 60.6366 45.336C60.0926 45.336 59.6206 45.28 59.2206 45.168C58.8206 45.056 58.4686 44.904 58.1646 44.712C57.8766 44.52 57.6286 44.304 57.4206 44.064C57.2286 43.808 57.0606 43.544 56.9166 43.272H56.4846V45ZM59.6526 42.456C60.5966 42.456 61.3566 42.168 61.9326 41.592C62.5246 41 62.8206 40.2 62.8206 39.192V38.904C62.8206 37.896 62.5246 37.104 61.9326 36.528C61.3566 35.936 60.5966 35.64 59.6526 35.64C58.7086 35.64 57.9406 35.944 57.3486 36.552C56.7726 37.144 56.4846 37.928 56.4846 38.904V39.192C56.4846 40.168 56.7726 40.96 57.3486 41.568C57.9406 42.16 58.7086 42.456 59.6526 42.456ZM70.2525 40.032C70.2685 40.384 70.3485 40.712 70.4925 41.016C70.6525 41.304 70.8605 41.56 71.1165 41.784C71.3885 41.992 71.6925 42.16 72.0285 42.288C72.3805 42.4 72.7485 42.456 73.1325 42.456C73.8845 42.456 74.4605 42.328 74.8605 42.072C75.2605 41.8 75.5485 41.48 75.7245 41.112L78.3165 42.552C78.1725 42.856 77.9725 43.176 77.7165 43.512C77.4605 43.832 77.1245 44.128 76.7085 44.4C76.3085 44.672 75.8125 44.896 75.2205 45.072C74.6445 45.248 73.9645 45.336 73.1805 45.336C72.2845 45.336 71.4685 45.192 70.7325 44.904C69.9965 44.616 69.3565 44.2 68.8125 43.656C68.2845 43.112 67.8685 42.448 67.5645 41.664C67.2765 40.88 67.1325 39.992 67.1325 39V38.856C67.1325 37.944 67.2845 37.112 67.5885 36.36C67.9085 35.608 68.3405 34.968 68.8845 34.44C69.4285 33.912 70.0605 33.504 70.7805 33.216C71.5165 32.912 72.3005 32.76 73.1325 32.76C74.1565 32.76 75.0365 32.944 75.7725 33.312C76.5085 33.664 77.1165 34.12 77.5965 34.68C78.0765 35.224 78.4285 35.832 78.6525 36.504C78.8765 37.16 78.9885 37.8 78.9885 38.424V40.032H70.2525ZM73.1085 35.496C72.3405 35.496 71.7165 35.696 71.2365 36.096C70.7565 36.48 70.4445 36.928 70.3005 37.44H75.9165C75.8205 36.88 75.5165 36.416 75.0045 36.048C74.5085 35.68 73.8765 35.496 73.1085 35.496ZM85.1964 37.464H85.7724L88.9404 33.096H92.2524V33.24L88.4124 38.688V39.12L92.6364 44.856V45H89.1804L85.7724 40.344H85.1964V45H82.1724V28.2H85.1964V37.464ZM95.0523 42.12H99.0843V35.976H95.3403V33.096H102.108V42.12H105.564V45H95.0523V42.12ZM102.852 29.568C102.852 29.888 102.788 30.192 102.66 30.48C102.548 30.752 102.388 30.992 102.18 31.2C101.972 31.392 101.724 31.552 101.436 31.68C101.164 31.792 100.876 31.848 100.572 31.848C100.252 31.848 99.9563 31.792 99.6843 31.68C99.4123 31.552 99.1723 31.392 98.9643 31.2C98.7563 30.992 98.5883 30.752 98.4603 30.48C98.3483 30.192 98.2923 29.888 98.2923 29.568C98.2923 29.248 98.3483 28.952 98.4603 28.68C98.5883 28.392 98.7563 28.152 98.9643 27.96C99.1723 27.752 99.4123 27.592 99.6843 27.48C99.9563 27.352 100.252 27.288 100.572 27.288C100.876 27.288 101.164 27.352 101.436 27.48C101.724 27.592 101.972 27.752 102.18 27.96C102.388 28.152 102.548 28.392 102.66 28.68C102.788 28.952 102.852 29.248 102.852 29.568ZM112.252 36.456C112.252 36.84 112.452 37.12 112.852 37.296C113.252 37.456 113.98 37.592 115.036 37.704C116.252 37.832 117.244 38.2 118.012 38.808C118.78 39.4 119.164 40.232 119.164 41.304V41.448C119.164 42.632 118.732 43.576 117.868 44.28C117.004 44.984 115.788 45.336 114.22 45.336C113.292 45.336 112.5 45.216 111.844 44.976C111.188 44.736 110.644 44.44 110.212 44.088C109.78 43.72 109.444 43.32 109.204 42.888C108.98 42.44 108.828 42.008 108.748 41.592L111.532 40.68C111.66 41.192 111.924 41.64 112.324 42.024C112.74 42.408 113.372 42.6 114.22 42.6C114.972 42.6 115.484 42.488 115.756 42.264C116.044 42.024 116.188 41.768 116.188 41.496C116.188 41.336 116.148 41.192 116.068 41.064C116.004 40.92 115.876 40.792 115.684 40.68C115.492 40.552 115.228 40.448 114.892 40.368C114.572 40.288 114.164 40.224 113.668 40.176C112.324 40.064 111.252 39.72 110.452 39.144C109.668 38.552 109.276 37.688 109.276 36.552V36.408C109.276 35.816 109.404 35.296 109.66 34.848C109.916 34.4 110.252 34.024 110.668 33.72C111.084 33.4 111.564 33.16 112.108 33C112.652 32.84 113.212 32.76 113.788 32.76C114.54 32.76 115.188 32.856 115.732 33.048C116.292 33.224 116.764 33.464 117.148 33.768C117.532 34.056 117.844 34.384 118.084 34.752C118.324 35.104 118.508 35.448 118.636 35.784L115.9 36.888C115.756 36.456 115.508 36.12 115.156 35.88C114.804 35.624 114.348 35.496 113.788 35.496C113.276 35.496 112.892 35.592 112.636 35.784C112.38 35.96 112.252 36.184 112.252 36.456ZM121.748 33.096H125.276V28.2H128.3V33.096H132.596V35.976H128.3V41.4C128.3 41.88 128.516 42.12 128.948 42.12H132.164V45H127.124C126.58 45 126.132 44.824 125.78 44.472C125.444 44.12 125.276 43.672 125.276 43.128V35.976H121.748V33.096ZM143.412 43.272C143.092 44.024 142.644 44.56 142.068 44.88C141.492 45.184 140.82 45.336 140.052 45.336C139.332 45.336 138.652 45.2 138.012 44.928C137.388 44.656 136.836 44.256 136.356 43.728C135.876 43.2 135.492 42.56 135.204 41.808C134.932 41.056 134.796 40.2 134.796 39.24V38.856C134.796 37.912 134.932 37.064 135.204 36.312C135.476 35.56 135.844 34.92 136.308 34.392C136.772 33.864 137.308 33.464 137.916 33.192C138.54 32.904 139.204 32.76 139.908 32.76C140.756 32.76 141.436 32.904 141.948 33.192C142.476 33.48 142.892 33.928 143.196 34.536H143.628V33.096H146.652V41.4C146.652 41.88 146.868 42.12 147.3 42.12H147.756V45H145.692C145.148 45 144.7 44.84 144.348 44.52C144.012 44.2 143.844 43.784 143.844 43.272H143.412ZM140.724 42.456C141.604 42.456 142.308 42.168 142.836 41.592C143.364 41 143.628 40.2 143.628 39.192V38.904C143.628 37.896 143.364 37.104 142.836 36.528C142.308 35.936 141.604 35.64 140.724 35.64C139.844 35.64 139.14 35.936 138.612 36.528C138.084 37.104 137.82 37.896 137.82 38.904V39.192C137.82 40.2 138.084 41 138.612 41.592C139.14 42.168 139.844 42.456 140.724 42.456ZM152.356 45H149.332V33.096H152.356V34.872H152.788C153.06 34.2 153.5 33.68 154.108 33.312C154.716 32.944 155.428 32.76 156.244 32.76C156.82 32.76 157.356 32.856 157.852 33.048C158.364 33.224 158.812 33.504 159.196 33.888C159.58 34.272 159.876 34.76 160.084 35.352C160.308 35.944 160.42 36.648 160.42 37.464V45H157.396V38.232C157.396 37.384 157.188 36.72 156.772 36.24C156.372 35.744 155.788 35.496 155.02 35.496C154.124 35.496 153.452 35.8 153.004 36.408C152.572 37 152.356 37.8 152.356 38.808V45Z" fill="#495567"/>
</svg>
