<svg width="189" height="88" viewBox="0 0 189 88" fill="none" xmlns="http://www.w3.org/2000/svg">
<path fill-rule="evenodd" clip-rule="evenodd" d="M189 0H0V72H78L94 88L110 72H189V0Z" fill="#FCB72B"/>
<path d="M44.7288 39.096H44.0088L39.1848 28.2H42.6408L46.0968 36.216H46.5288L49.9848 28.2H53.4408L48.6168 39.096H47.8968V45H44.7288V39.096ZM66.1286 39.192C66.1286 40.184 65.9606 41.064 65.6246 41.832C65.2886 42.584 64.8326 43.224 64.2566 43.752C63.6806 44.264 63.0166 44.656 62.2646 44.928C61.5286 45.2 60.7526 45.336 59.9366 45.336C59.1206 45.336 58.3366 45.2 57.5846 44.928C56.8486 44.656 56.1926 44.264 55.6166 43.752C55.0406 43.224 54.5846 42.584 54.2486 41.832C53.9126 41.064 53.7446 40.184 53.7446 39.192V38.904C53.7446 37.928 53.9126 37.064 54.2486 36.312C54.5846 35.544 55.0406 34.896 55.6166 34.368C56.1926 33.84 56.8486 33.44 57.5846 33.168C58.3366 32.896 59.1206 32.76 59.9366 32.76C60.7526 32.76 61.5286 32.896 62.2646 33.168C63.0166 33.44 63.6806 33.84 64.2566 34.368C64.8326 34.896 65.2886 35.544 65.6246 36.312C65.9606 37.064 66.1286 37.928 66.1286 38.904V39.192ZM59.9366 42.456C60.3686 42.456 60.7766 42.384 61.1606 42.24C61.5446 42.096 61.8806 41.888 62.1686 41.616C62.4566 41.344 62.6806 41.016 62.8406 40.632C63.0166 40.232 63.1046 39.784 63.1046 39.288V38.808C63.1046 38.312 63.0166 37.872 62.8406 37.488C62.6806 37.088 62.4566 36.752 62.1686 36.48C61.8806 36.208 61.5446 36 61.1606 35.856C60.7766 35.712 60.3686 35.64 59.9366 35.64C59.5046 35.64 59.0966 35.712 58.7126 35.856C58.3286 36 57.9926 36.208 57.7046 36.48C57.4166 36.752 57.1846 37.088 57.0086 37.488C56.8486 37.872 56.7686 38.312 56.7686 38.808V39.288C56.7686 39.784 56.8486 40.232 57.0086 40.632C57.1846 41.016 57.4166 41.344 57.7046 41.616C57.9926 41.888 58.3286 42.096 58.7126 42.24C59.0966 42.384 59.5046 42.456 59.9366 42.456ZM72.0725 37.464H72.6485L75.8165 33.096H79.1285V33.24L75.2885 38.688V39.12L79.5125 44.856V45H76.0565L72.6485 40.344H72.0725V45H69.0485V28.2H72.0725V37.464ZM93.3764 39.192C93.3764 40.184 93.2084 41.064 92.8724 41.832C92.5364 42.584 92.0804 43.224 91.5044 43.752C90.9284 44.264 90.2644 44.656 89.5124 44.928C88.7764 45.2 88.0004 45.336 87.1844 45.336C86.3684 45.336 85.5844 45.2 84.8324 44.928C84.0964 44.656 83.4404 44.264 82.8644 43.752C82.2884 43.224 81.8324 42.584 81.4964 41.832C81.1604 41.064 80.9924 40.184 80.9924 39.192V38.904C80.9924 37.928 81.1604 37.064 81.4964 36.312C81.8324 35.544 82.2884 34.896 82.8644 34.368C83.4404 33.84 84.0964 33.44 84.8324 33.168C85.5844 32.896 86.3684 32.76 87.1844 32.76C88.0004 32.76 88.7764 32.896 89.5124 33.168C90.2644 33.44 90.9284 33.84 91.5044 34.368C92.0804 34.896 92.5364 35.544 92.8724 36.312C93.2084 37.064 93.3764 37.928 93.3764 38.904V39.192ZM87.1844 42.456C87.6164 42.456 88.0244 42.384 88.4084 42.24C88.7924 42.096 89.1284 41.888 89.4164 41.616C89.7044 41.344 89.9284 41.016 90.0884 40.632C90.2644 40.232 90.3524 39.784 90.3524 39.288V38.808C90.3524 38.312 90.2644 37.872 90.0884 37.488C89.9284 37.088 89.7044 36.752 89.4164 36.48C89.1284 36.208 88.7924 36 88.4084 35.856C88.0244 35.712 87.6164 35.64 87.1844 35.64C86.7524 35.64 86.3444 35.712 85.9604 35.856C85.5764 36 85.2404 36.208 84.9524 36.48C84.6644 36.752 84.4324 37.088 84.2564 37.488C84.0964 37.872 84.0164 38.312 84.0164 38.808V39.288C84.0164 39.784 84.0964 40.232 84.2564 40.632C84.4324 41.016 84.6644 41.344 84.9524 41.616C85.2404 41.888 85.5764 42.096 85.9604 42.24C86.3444 42.384 86.7524 42.456 87.1844 42.456ZM98.4083 45H95.3843V28.2H98.4083V35.016H98.8403C99.1443 34.296 99.5923 33.744 100.184 33.36C100.776 32.96 101.504 32.76 102.368 32.76C102.96 32.76 103.504 32.856 104 33.048C104.496 33.24 104.928 33.528 105.296 33.912C105.664 34.296 105.952 34.792 106.16 35.4C106.368 35.992 106.472 36.696 106.472 37.512V45H103.448V38.232C103.448 37.384 103.24 36.72 102.824 36.24C102.424 35.744 101.84 35.496 101.072 35.496C100.176 35.496 99.5043 35.8 99.0563 36.408C98.6243 37 98.4083 37.8 98.4083 38.808V45ZM116.664 43.272C116.344 44.024 115.896 44.56 115.32 44.88C114.744 45.184 114.072 45.336 113.304 45.336C112.584 45.336 111.904 45.2 111.264 44.928C110.64 44.656 110.088 44.256 109.608 43.728C109.128 43.2 108.744 42.56 108.456 41.808C108.184 41.056 108.048 40.2 108.048 39.24V38.856C108.048 37.912 108.184 37.064 108.456 36.312C108.728 35.56 109.096 34.92 109.56 34.392C110.024 33.864 110.56 33.464 111.168 33.192C111.792 32.904 112.456 32.76 113.16 32.76C114.008 32.76 114.688 32.904 115.2 33.192C115.728 33.48 116.144 33.928 116.448 34.536H116.88V33.096H119.904V41.4C119.904 41.88 120.12 42.12 120.552 42.12H121.008V45H118.944C118.4 45 117.952 44.84 117.6 44.52C117.264 44.2 117.096 43.784 117.096 43.272H116.664ZM113.976 42.456C114.856 42.456 115.56 42.168 116.088 41.592C116.616 41 116.88 40.2 116.88 39.192V38.904C116.88 37.896 116.616 37.104 116.088 36.528C115.56 35.936 114.856 35.64 113.976 35.64C113.096 35.64 112.392 35.936 111.864 36.528C111.336 37.104 111.072 37.896 111.072 38.904V39.192C111.072 40.2 111.336 41 111.864 41.592C112.392 42.168 113.096 42.456 113.976 42.456ZM134.536 45H131.512V36.648C131.512 36.312 131.424 36.064 131.248 35.904C131.088 35.728 130.872 35.64 130.6 35.64C130.28 35.64 130.024 35.736 129.832 35.928C129.656 36.12 129.568 36.408 129.568 36.792V45H126.544V36.648C126.544 36.312 126.448 36.064 126.256 35.904C126.08 35.728 125.864 35.64 125.608 35.64C125.32 35.64 125.08 35.736 124.888 35.928C124.696 36.12 124.6 36.408 124.6 36.792V45H121.576V33.096H124.6V34.248H125.032C125.128 33.816 125.344 33.464 125.68 33.192C126.032 32.904 126.488 32.76 127.048 32.76C127.576 32.76 128.024 32.904 128.392 33.192C128.76 33.464 129.008 33.816 129.136 34.248H129.568C129.696 33.816 129.96 33.464 130.36 33.192C130.776 32.904 131.288 32.76 131.896 32.76C132.696 32.76 133.336 33.032 133.816 33.576C134.296 34.104 134.536 34.84 134.536 35.784V45ZM143.912 43.272C143.592 44.024 143.144 44.56 142.568 44.88C141.992 45.184 141.32 45.336 140.552 45.336C139.832 45.336 139.152 45.2 138.512 44.928C137.888 44.656 137.336 44.256 136.856 43.728C136.376 43.2 135.992 42.56 135.704 41.808C135.432 41.056 135.296 40.2 135.296 39.24V38.856C135.296 37.912 135.432 37.064 135.704 36.312C135.976 35.56 136.344 34.92 136.808 34.392C137.272 33.864 137.808 33.464 138.416 33.192C139.04 32.904 139.704 32.76 140.408 32.76C141.256 32.76 141.936 32.904 142.448 33.192C142.976 33.48 143.392 33.928 143.696 34.536H144.128V33.096H147.152V41.4C147.152 41.88 147.368 42.12 147.8 42.12H148.256V45H146.192C145.648 45 145.2 44.84 144.848 44.52C144.512 44.2 144.344 43.784 144.344 43.272H143.912ZM141.224 42.456C142.104 42.456 142.808 42.168 143.336 41.592C143.864 41 144.128 40.2 144.128 39.192V38.904C144.128 37.896 143.864 37.104 143.336 36.528C142.808 35.936 142.104 35.64 141.224 35.64C140.344 35.64 139.64 35.936 139.112 36.528C138.584 37.104 138.32 37.896 138.32 38.904V39.192C138.32 40.2 138.584 41 139.112 41.592C139.64 42.168 140.344 42.456 141.224 42.456Z" fill="#495567"/>
</svg>
